<?xml version="1.0" encoding="UTF-8" standalone="no"?>
<svg
   width="432.41379"
   height="616.19263"
   version="1.1"
   id="svg14"
   sodipodi:docname="tip-jar.svg"
   inkscape:version="1.1.1 (3bf5ae0d25, 2021-09-20)"
   xmlns:inkscape="http://www.inkscape.org/namespaces/inkscape"
   xmlns:sodipodi="http://sodipodi.sourceforge.net/DTD/sodipodi-0.dtd"
   xmlns="http://www.w3.org/2000/svg"
   xmlns:svg="http://www.w3.org/2000/svg">
  <defs
     id="defs18" />
  <sodipodi:namedview
     id="namedview16"
     pagecolor="#ffffff"
     bordercolor="#666666"
     borderopacity="1.0"
     inkscape:pageshadow="2"
     inkscape:pageopacity="0.0"
     inkscape:pagecheckerboard="0"
     showgrid="false"
     fit-margin-top="0"
     fit-margin-left="0"
     fit-margin-right="0"
     fit-margin-bottom="0"
     inkscape:zoom="0.66601562"
     inkscape:cx="216.21114"
     inkscape:cy="308.55132"
     inkscape:window-width="1920"
     inkscape:window-height="1031"
     inkscape:window-x="0"
     inkscape:window-y="25"
     inkscape:window-maximized="1"
     inkscape:current-layer="svg14" />
  <path
     style="fill:#000000;fill-opacity:1;stroke:none"
     d="m 52.404518,1.3634539 c -8.762,1.809 -14.142,9.7380001 -11.347,18.5060001 0.789,2.478 3.516,4.63 3.763,7.185 0.25,2.583 -2.216,4.667 -3.242,6.83 -1.048,2.209 -1.193,4.591 -1.155,7 0.045,2.852 0.513,5.424 1.97,7.911 0.9,1.534 2.861,3.168 2.823,5.089 -0.049,2.544 -3.173,4.677 -4.07,7.015 -2.569,6.693 0.744,15.043 7.262,17.896 6.422,2.81 16.101,1.089 22.996,1.089 h 52.000002 180 57 c 7.494,0 18.135,1.905 24.96,-1.688 6.014,-3.167 8.577,-11.045 6.032,-17.297 -0.911,-2.237 -3.812,-4.541 -3.816,-7.015 -0.003,-1.91 1.884,-3.529 2.755,-5.089 1.526,-2.739 2.074,-5.798 2.036,-8.911 -0.058,-4.72 -4.875,-8.764 -4.369,-13 0.342,-2.864 3.037,-5.196 3.829,-8 2.383,-8.429 -3.359,-15.6060001 -11.427,-17.4710001 -12.264,-2.835 -27.427,-0.52900002 -40,-0.52900002 h -83 -138 -44.000002 c -7.415,0 -15.713,-1.025 -23,0.47900002 M 382.40452,95.884454 h -237 -67.000002 -18 c -2.585,0 -6.179,-0.59 -8.57,0.603 -2.758,1.377 -3.245,5.793996 -4.245,8.396996 -2.069,5.386 -4.977,10.322 -8.34,15 -7.318,10.179 -16.16,19.332 -22.779,30 -8.811,14.2 -13.288,29.589 -15.63799995,46 -1.578,11.022 -0.428,22.875 -0.428,34 v 64 196 c 0,25.902 -0.736,52.07 7.25499995,77 3.959,12.349 9.073,24.746 18.784,33.826 17.602,16.458 39.608,15.174 61.961,15.174 h 115.000002 133 c 21.492,0 45.598,3.119 63.985,-10.489 32.394,-23.974 32.015,-72.327 32.015,-108.511 v -206 -62 c 0,-16.684 0.366,-33.643 -3.503,-50 -3.228,-13.645 -10.551,-26.931 -19,-38 -10.927,-14.314 -23.307,-26.898 -27.497,-44.999996 z"
     id="path4" />
  <path
     style="fill:#fcfeff;fill-opacity:1;stroke:#000000;stroke-opacity:1"
     d="m 49.206896,306.92497 v 184 H 383.20689 v -184 z"
     id="path6" />
  <g
     id="g1411"
     transform="translate(-716.71089,-420.14909)">
    <path
       style="fill:#000000;fill-opacity:1;stroke:none"
       d="m 1013.8269,847.57588 v 19 c 0,2.62 -0.45,5.99 1.603,8.005 3.936,3.864 12.273,3.969 17.397,3.994 18.379,0.089 35.37,-8.171 38.674,-27.999 2.709,-16.254 -5.744,-29.474 -17.674,-39.7 -5.789,-4.962 -19.46,-11.827 -17.638,-21.296 2.583,-13.425 21.591,-3.51 28.638,-1.004 v -18 c -0.01,-2.264 0.43,-5.363 -1.028,-7.297 -2.859,-3.793 -11.646,-4.354 -15.972,-4.857 -17.384,-2.025 -34.799,6.659 -38.076,25.154 -2.769,15.623 3.607,29.121 15.169,39.586 5.579,5.05 21.235,13.304 19.419,22.413 -3.119,15.636 -22.325,4.358 -30.512,2.001 m -220.00001,-86 v 26 h 17 v 88 h 27 v -88 h 18 v -26 h -62 m 79,0 v 114 h 26 v -114 h -26 m 51,0 v 114 h 26 v -43 c 11.061,0 22.864,-1.008 31.961,-8.054 15.767,-12.212 16.561,-40.361 1.999,-53.761 -15.247,-14.03 -40.941,-9.185 -59.96,-9.185 z"
       id="path8" />
    <path
       style="fill:#ffffff;fill-opacity:1;stroke:none"
       d="m 949.41661,782.36758 v 27 c 4.529,-0.853 10.206,-1.031 13.697,-4.419 4.896,-4.752 4.627,-15.742 -0.886,-19.853 -3.595,-2.681 -8.537,-2.693 -12.811,-2.728 z"
       id="path10" />
  </g>
</svg>
